<svg
   width="1958.2882mm"
   height="1920.2896mm"
   viewBox="0 0 1958.2882 1920.2896"
   version="1.1"
   id="svg5"
   sodipodi:docname="drawing.svg"
   inkscape:version="1.1.1 (eb90963e84, 2021-10-02)"
   xmlns:inkscape="http://www.inkscape.org/namespaces/inkscape"
   xmlns:sodipodi="http://sodipodi.sourceforge.net/DTD/sodipodi-0.dtd"
   xmlns="http://www.w3.org/2000/svg"
   xmlns:svg="http://www.w3.org/2000/svg">
  <sodipodi:namedview
     id="namedview7"
     pagecolor="#505050"
     bordercolor="#eeeeee"
     borderopacity="1"
     inkscape:pageshadow="0"
     inkscape:pageopacity="0"
     inkscape:pagecheckerboard="0"
     inkscape:document-units="mm"
     showgrid="false"
     fit-margin-top="0"
     fit-margin-left="0"
     fit-margin-right="0"
     fit-margin-bottom="0"
     inkscape:zoom="0.0625"
     inkscape:cx="2424"
     inkscape:cy="4264"
     inkscape:window-width="1848"
     inkscape:window-height="1016"
     inkscape:window-x="0"
     inkscape:window-y="27"
     inkscape:window-maximized="1"
     inkscape:current-layer="layer1" />
  <defs
     id="defs2" />
  <g
     inkscape:label="Layer 1"
     inkscape:groupmode="layer"
     id="layer1"
     transform="translate(892.76569,815.09671)">
    <path
       id="path405"
       sodipodi:nodetypes="ccsssccccscccssscccsscccssssssccscccccc"
       style="fill:#000000;fill-opacity:1;stroke-width:4.00164;stroke-miterlimit:4;stroke-dasharray:none"
       d="m 1065.5225,-815.09671 c -439.98828,2.59362 -880.01168,-0.48807 -1320.00001,1.16714 -119.55589,0.96066 -144.54639,4.29083 -163.27593,7.32491 -112.94919,18.29654 -159.6267,40.16255 -229.73128,107.97304 -80.94982,78.29936 -136.26326,162.51372 -185.28427,281.89677 -15.80034,38.47922 -42.44591,115.79742 -54.70293,158.59628 l -5.29377,18.52839 61.32018,-0.10671 22.38877,-36.28393 c 53.12882,-86.36363 116.66549,-159.2879 167.52859,-192.34266 63.46959,-41.24969 148.21683,-60.56867 266.67521,-60.66044 h 40.0356 c -9.17216,105.1851 -16.2069,210.55719 -23.82229,315.86565 -23.65569,329.0753 -24.0093,333.24687 -37.27567,418.21287 -38.65916,247.57139 -72.6843,341.39581 -175.79772,484.84456 -92.92086,129.2508 -108.86952,159.4645 -116.57374,220.9082 -10.69999,85.33668 34.17479,156.60934 116.57374,185.28424 38.42627,12.6325 83.1203,12.8796 120.10305,-4.3011 v 0.1068 c 42.54129,-20.9436 92.11626,-78.8534 122.97223,-143.59712 56.4147,-118.37368 119.27711,-445.88193 162.34421,-845.56642 3.64963,-33.870935 45.98937,-615.35536 45.98937,-630.9899 l 494.97364,-0.7283 c -32.50024,226.5304 -52.23966,454.916997 -71.68562,682.9049 -6.05115,79.28393 -8.26939,341.36046 -3.52918,413.4836 13.24089,201.43036 45.84104,326.91548 105.54496,405.86061 51.80882,68.50583 113.69016,110.54593 186.38513,126.72033 32.60722,7.2543 100.4558,5.3732 133.5599,-3.7498 55.78297,-15.373 115.73032,-52.4372 166.09228,-102.67915 65.42119,-65.26246 107.58846,-147.36635 139.29495,-271.41849 12.2252,-47.83159 31.6529,-151.11775 31.6529,-167.96985 l -61.4297,1.21249 c -10.53081,51.14895 -14.67171,67.07987 -22.82985,87.12942 -23.30727,57.27225 -68.48097,99.8805 -127.49314,120.54416 C 777.06774,784.9182 699.28016,773.87634 634.28607,735.50209 571.11994,694.242 532.45023,624.95976 516.38872,524.18982 499.55863,172.54528 540.28051,-180.17237 589.06955,-528.08341 l 476.44515,-0.8817 v -286.08537 z" />
  </g>
</svg>
